<?xml version="1.0" encoding="UTF-8"?>
<!DOCTYPE svg PUBLIC "-//W3C//DTD SVG 1.1//EN" "http://www.w3.org/Graphics/SVG/1.1/DTD/svg11.dtd">
<svg xmlns="http://www.w3.org/2000/svg" version="1.1" width="120px" height="109px" style="shape-rendering:geometricPrecision; text-rendering:geometricPrecision; image-rendering:optimizeQuality; fill-rule:evenodd; clip-rule:evenodd" xmlns:xlink="http://www.w3.org/1999/xlink">
<g><path style="opacity:0.053" fill="#1c1c1c" d="M 95.5,32.5 C 95.829,46.3435 95.4957,60.0102 94.5,73.5C 94.8325,59.8171 94.4992,46.1504 93.5,32.5C 89.4469,30.4734 85.4469,28.4734 81.5,26.5C 74.63,21.8088 67.4633,17.4755 60,13.5C 56.7073,14.5565 53.874,16.2231 51.5,18.5C 48.9959,19.5839 46.6626,20.9172 44.5,22.5C 38.6608,25.5845 32.9942,28.9179 27.5,32.5C 25.5181,45.7924 24.8514,59.4591 25.5,73.5C 24.5043,60.0102 24.171,46.3435 24.5,32.5C 35.9129,24.949 47.7462,17.949 60,11.5C 72.1277,18.1416 83.961,25.1416 95.5,32.5 Z"/></g>
<g><path style="opacity:1" fill="#d1d1d3" d="M 59.5,25.5 C 55.7004,27.2336 52.0337,29.2336 48.5,31.5C 48.2148,29.712 48.5481,28.0453 49.5,26.5C 50.8333,26.5 52.1667,26.5 53.5,26.5C 54.6309,24.9255 54.7975,23.2588 54,21.5C 50.8174,22.9824 47.6508,23.3157 44.5,22.5C 46.6626,20.9172 48.9959,19.5839 51.5,18.5C 53.1368,17.7822 54.8034,17.6155 56.5,18C 55.5494,18.7175 55.3828,19.5509 56,20.5C 58.4232,17.0043 60.9232,16.8377 63.5,20C 59.4632,22.9178 59.7966,23.9178 64.5,23C 62.8251,23.9853 61.1585,24.8186 59.5,25.5 Z"/></g>
<g><path style="opacity:1" fill="#b7b7b9" d="M 81.5,26.5 C 80.9615,29.0949 81.6281,31.5949 83.5,34C 83.2517,35.7491 82.2517,36.5824 80.5,36.5C 73.6577,32.5784 66.6577,28.9117 59.5,25.5C 61.1585,24.8186 62.8251,23.9853 64.5,23C 59.7966,23.9178 59.4632,22.9178 63.5,20C 60.9232,16.8377 58.4232,17.0043 56,20.5C 55.3828,19.5509 55.5494,18.7175 56.5,18C 54.8034,17.6155 53.1368,17.7822 51.5,18.5C 53.874,16.2231 56.7073,14.5565 60,13.5C 67.4633,17.4755 74.63,21.8088 81.5,26.5 Z"/></g>
<g><path style="opacity:1" fill="#e8e8e8" d="M 48.5,31.5 C 44.5275,33.8217 40.5275,36.155 36.5,38.5C 35.1667,48.5 35.1667,58.5 36.5,68.5C 37.1835,68.8627 37.8501,69.1961 38.5,69.5C 38.624,71.9735 38.7907,74.6402 39,77.5C 37.4794,77.5186 35.9794,77.852 34.5,78.5C 31.6689,77.9213 29.3356,76.588 27.5,74.5C 28.0197,72.8985 29.3531,72.2319 31.5,72.5C 30.8333,71.8333 30.1667,71.1667 29.5,70.5C 30.156,57.9699 30.8226,45.4699 31.5,33C 30.436,31.4894 29.1026,31.3228 27.5,32.5C 32.9942,28.9179 38.6608,25.5845 44.5,22.5C 47.6508,23.3157 50.8174,22.9824 54,21.5C 54.7975,23.2588 54.6309,24.9255 53.5,26.5C 52.1667,26.5 50.8333,26.5 49.5,26.5C 48.5481,28.0453 48.2148,29.712 48.5,31.5 Z"/></g>
<g><path style="opacity:1" fill="#fbfbfb" d="M 27.5,74.5 C 26.1667,60.5 26.1667,46.5 27.5,32.5C 29.1026,31.3228 30.436,31.4894 31.5,33C 30.8226,45.4699 30.156,57.9699 29.5,70.5C 30.1667,71.1667 30.8333,71.8333 31.5,72.5C 29.3531,72.2319 28.0197,72.8985 27.5,74.5 Z"/></g>
<g><path style="opacity:1" fill="#a5a6aa" d="M 81.5,26.5 C 85.4469,28.4734 89.4469,30.4734 93.5,32.5C 94.4992,46.1504 94.8325,59.8171 94.5,73.5C 86.5355,78.1517 78.5355,82.8184 70.5,87.5C 70.5858,86.5041 70.2524,85.6708 69.5,85C 71.6268,83.9486 73.2935,82.4486 74.5,80.5C 73.5697,78.8953 73.5697,77.3953 74.5,76C 73.552,75.5172 72.552,75.3505 71.5,75.5C 75.5172,72.7329 79.6839,70.0663 84,67.5C 84.8321,57.8161 84.6655,48.1495 83.5,38.5C 82.2613,38.0576 81.2613,37.3909 80.5,36.5C 82.2517,36.5824 83.2517,35.7491 83.5,34C 81.6281,31.5949 80.9615,29.0949 81.5,26.5 Z"/></g>
<g><path style="opacity:0.339" fill="#1b1b1b" d="M 59.5,25.5 C 59.1667,26.1667 58.8333,26.8333 58.5,27.5C 51.0744,31.7401 43.741,36.2401 36.5,41C 37.1538,49.7744 37.8205,58.6077 38.5,67.5C 40.8132,68.5005 42.8132,69.8338 44.5,71.5C 44.8333,72.1667 45.1667,72.8333 45.5,73.5C 43.0313,72.4314 40.6979,71.0981 38.5,69.5C 37.8501,69.1961 37.1835,68.8627 36.5,68.5C 35.1667,58.5 35.1667,48.5 36.5,38.5C 40.5275,36.155 44.5275,33.8217 48.5,31.5C 52.0337,29.2336 55.7004,27.2336 59.5,25.5 Z"/></g>
<g><path style="opacity:0.071" fill="#101010" d="M 59.5,25.5 C 66.6577,28.9117 73.6577,32.5784 80.5,36.5C 81.2613,37.3909 82.2613,38.0576 83.5,38.5C 84.6655,48.1495 84.8321,57.8161 84,67.5C 79.6839,70.0663 75.5172,72.7329 71.5,75.5C 67.6258,77.3543 63.7925,79.3543 60,81.5C 58.415,80.9561 56.915,80.2894 55.5,79.5C 52.1667,77.5 48.8333,75.5 45.5,73.5C 45.1667,72.8333 44.8333,72.1667 44.5,71.5C 49.7073,74.0207 54.8739,76.6874 60,79.5C 67.2843,75.7169 74.451,71.7169 81.5,67.5C 82.8333,58.1667 82.8333,48.8333 81.5,39.5C 74.2095,34.6889 66.5428,30.6889 58.5,27.5C 58.8333,26.8333 59.1667,26.1667 59.5,25.5 Z"/></g>
<g><path style="opacity:0.106" fill="#111111" d="M 24.5,32.5 C 24.171,46.3435 24.5043,60.0102 25.5,73.5C 25.8417,74.3382 26.5084,74.6716 27.5,74.5C 29.3356,76.588 31.6689,77.9213 34.5,78.5C 38.833,81.669 43.4997,84.3357 48.5,86.5C 52.0359,89.1909 55.8692,91.5243 60,93.5C 63.3784,91.2886 66.8784,89.2886 70.5,87.5C 78.5355,82.8184 86.5355,78.1517 94.5,73.5C 95.4957,60.0102 95.829,46.3435 95.5,32.5C 96.6607,46.3272 96.8273,60.3272 96,74.5C 84.164,81.7524 72.164,88.7524 60,95.5C 47.7608,88.9313 35.7608,81.9313 24,74.5C 23.1727,60.3272 23.3393,46.3272 24.5,32.5 Z"/></g>
<g><path style="opacity:1" fill="#c2c2c4" d="M 71.5,75.5 C 72.552,75.3505 73.552,75.5172 74.5,76C 73.5697,77.3953 73.5697,78.8953 74.5,80.5C 73.2935,82.4486 71.6268,83.9486 69.5,85C 70.2524,85.6708 70.5858,86.5041 70.5,87.5C 66.8784,89.2886 63.3784,91.2886 60,93.5C 55.8692,91.5243 52.0359,89.1909 48.5,86.5C 50.5695,86.4486 52.4029,87.1153 54,88.5C 56.0466,87.3906 58.2133,86.7239 60.5,86.5C 60.5,85.5 60.5,84.5 60.5,83.5C 57.4124,83.8034 55.7458,82.4701 55.5,79.5C 56.915,80.2894 58.415,80.9561 60,81.5C 63.7925,79.3543 67.6258,77.3543 71.5,75.5 Z"/></g>
<g><path style="opacity:1" fill="#d9dadc" d="M 38.5,69.5 C 40.6979,71.0981 43.0313,72.4314 45.5,73.5C 48.8333,75.5 52.1667,77.5 55.5,79.5C 55.7458,82.4701 57.4124,83.8034 60.5,83.5C 60.5,84.5 60.5,85.5 60.5,86.5C 58.2133,86.7239 56.0466,87.3906 54,88.5C 52.4029,87.1153 50.5695,86.4486 48.5,86.5C 43.4997,84.3357 38.833,81.669 34.5,78.5C 35.9794,77.852 37.4794,77.5186 39,77.5C 38.7907,74.6402 38.624,71.9735 38.5,69.5 Z"/></g>
<g><path style="opacity:0.934" fill="#d8d8d8" d="M 27.5,32.5 C 26.1667,46.5 26.1667,60.5 27.5,74.5C 26.5084,74.6716 25.8417,74.3382 25.5,73.5C 24.8514,59.4591 25.5181,45.7924 27.5,32.5 Z"/></g>
</svg>
